<svg width="207" height="45" xmlns="http://www.w3.org/2000/svg" fill="none">
 <g>
  <title>Layer 1</title>
  <g stroke="null" id="svg_14" fill="#422C10">
   <g stroke="null" id="svg_2">
    <path stroke="null" id="svg_3" d="m32.31217,15.24335l-7.92584,0l-0.70939,7.06535l7.25202,0c4.43467,0 4.76499,0.84424 4.76499,3.72529l0,1.21935l-5.8618,0c-5.75945,0 -8.97872,2.01352 -8.97872,7.65483c0,4.78344 2.75894,8.24122 7.94384,8.24122c1.89888,0 4.77905,-0.2899 8.00798,-2.07546l0.30485,1.78512l7.06799,0l0,-16.76883c-0.00044,-7.77562 -2.13432,-10.84686 -11.86592,-10.84686l-0.00001,-0.00001zm3.38179,20.76074c-1.26329,0.57937 -2.28674,1.14249 -4.01782,1.14249c-1.61293,0 -2.3434,-0.80252 -2.3434,-2.34824c0,-1.55758 0.78626,-1.88878 2.57752,-1.88878l3.78414,0l0,3.09453l-0.00044,0zm168.83039,-20.76074l-9.19264,0l-7.77122,12.30341l0,-25.02498l-8.4793,1.41175l0,38.87281l8.4793,0l0,-12.95439l7.77122,12.95439l9.19264,0l-8.48588,-14.13728l8.48588,-13.4257zm-67.37183,-0.37951c-9.96792,0 -12.39346,5.58727 -12.39346,11.34849l0,5.56135c0,5.75901 2.4251,11.34541 12.39346,11.34541c9.96177,0 12.34383,-5.58639 12.34383,-11.34541l0,-5.56135c-0.00044,-5.76122 -2.38206,-11.34849 -12.34383,-11.34849zm3.85574,17.72948c0,1.96213 -1.00764,3.53772 -3.88429,3.53772c-2.88456,0 -3.88385,-1.57559 -3.88385,-3.53772l0,-7.14529c0,-1.95554 0.99886,-3.52762 3.88385,-3.52762c2.87666,0 3.88429,1.57208 3.88429,3.52762l0,7.14529zm-119.40503,-17.34996l-6.40954,0l0.01054,-3.53641c0,-1.84178 0.1757,-2.82921 2.82219,-2.82921l3.53597,0l0,-7.06535l-5.6593,0c-6.79652,0 -9.18868,3.42791 -9.18868,9.19044l0,4.24052l-4.23877,0l0,7.06535l4.23877,0l0,20.49764l8.4793,0l0,-20.49764l5.6593,0l0.75025,-7.06535l-0.00001,0.00001zm25.4023,11.30543l0,4.9486c0,6.90897 3.61723,11.69022 12.7229,11.69022c2.12114,0 4.63014,-0.22665 8.48324,-1.09066l0,-6.88877c-4.39866,0.75639 -5.66107,0.92287 -7.77737,0.92287c-3.80172,0 -4.94991,-0.83941 -4.94991,-4.06395l0,-6.09943c0,-3.22102 1.14821,-4.06043 4.94991,-4.06043c2.11631,0 3.37871,0.16647 7.77737,0.91935l0,-6.88788c-3.85311,-0.86445 -6.36255,-1.0933 -8.48324,-1.0933c-9.10523,0 -12.7229,4.79002 -12.7229,11.70339zm65.42199,-11.70339c-2.15848,0 -4.53,0.34438 -6.3621,1.02522l0,-13.34883l-8.47754,1.41175l0,38.16342c4.61345,0.70939 7.06843,1.07749 11.2457,1.07749c11.57602,0 13.48588,-4.86997 13.48588,-11.54702l0,-6.88569c-0.00044,-6.09943 -1.41131,-9.89632 -9.89193,-9.89632l0,-0.00001zm1.41263,16.83999c0,2.64955 -0.56795,4.54976 -4.72019,4.54976c-1.15084,0 -1.84178,0 -3.05455,-0.11816l0,-13.05497c1.26416,-0.5763 2.50988,-1.14249 4.24008,-1.14249c2.885,0 3.53466,1.57208 3.53466,3.52762l0,6.23823l0,0.00001zm50.46903,-16.82154c-9.96792,0 -12.39477,5.58727 -12.39477,11.34849l0,5.56135c0,5.75901 2.42643,11.34541 12.39477,11.34541c9.95869,0 12.34206,-5.58639 12.34206,-11.34541l0,-5.56135c0,-5.76122 -2.38337,-11.34849 -12.34206,-11.34849zm3.86409,17.72948c0,1.96213 -1.01731,3.53772 -3.89395,3.53772c-2.87973,0 -3.87902,-1.57559 -3.87902,-3.53772l0,-7.14529c0,-1.95554 0.9993,-3.52762 3.87902,-3.52762c2.87666,0 3.89395,1.57208 3.89395,3.52762l0,7.14529zm-85.43602,-17.74793c-9.32881,0 -12.01702,4.95124 -12.01702,10.99401l0,5.65799c0,6.90897 3.62075,11.69022 12.72642,11.69022c4.15619,0 6.36124,-0.22665 10.59472,-1.09066l0,-6.88877c-4.38943,0.75639 -6.47411,0.92287 -9.89193,0.92287c-3.79995,0 -4.94904,-0.83941 -4.94904,-4.06395l0,-0.56972l15.55035,0l0,-5.65799c0.00044,-6.10119 -2.68206,-10.99401 -12.01351,-10.99401l0.00001,0.00001zm3.53421,10.99401l-7.07106,0l0,-1.09769c0,-1.95511 0.65623,-3.53421 3.53685,-3.53421c2.8771,0 3.53421,1.5791 3.53421,3.53421l0,1.09769z" fill-rule="evenodd" clip-rule="evenodd" fill="#2c303d"/>
   </g>
  </g>
 </g>

</svg>