<?xml version="1.0" encoding="UTF-8" standalone="no"?>
<svg
   width="251"
   height="75"
   viewBox="0 0 251 75"
   fill="none"
   version="1.1"
   id="svg84966"
   sodipodi:docname="2.svg"
   inkscape:version="1.1.1 (3bf5ae0d25, 2021-09-20)"
   xmlns:inkscape="http://www.inkscape.org/namespaces/inkscape"
   xmlns:sodipodi="http://sodipodi.sourceforge.net/DTD/sodipodi-0.dtd"
   xmlns="http://www.w3.org/2000/svg"
   xmlns:svg="http://www.w3.org/2000/svg">
  <sodipodi:namedview
     id="namedview84968"
     pagecolor="#505050"
     bordercolor="#eeeeee"
     borderopacity="1"
     inkscape:pageshadow="0"
     inkscape:pageopacity="0"
     inkscape:pagecheckerboard="0"
     showgrid="false"
     inkscape:zoom="3.8735929"
     inkscape:cx="128.95005"
     inkscape:cy="37.562026"
     inkscape:window-width="1920"
     inkscape:window-height="1017"
     inkscape:window-x="-8"
     inkscape:window-y="-8"
     inkscape:window-maximized="1"
     inkscape:current-layer="svg84966" />
  <g
     filter="url(#filter0_b)"
     id="g84921">
    <rect
       x="0.530029"
       y="0.0229492"
       width="250"
       height="74.6269"
       rx="37.3134"
       fill="url(#paint0_linear)"
       id="rect84917" />
    <rect
       x="1.03003"
       y="0.522949"
       width="249"
       height="73.6269"
       rx="36.8134"
       stroke="url(#paint1_linear)"
       id="rect84919" />
  </g>
  <defs
     id="defs84964">
    <filter
       id="filter0_b"
       x="-49.47"
       y="-49.9771"
       width="350"
       height="174.627"
       filterUnits="userSpaceOnUse"
       color-interpolation-filters="sRGB">
      <feFlood
         flood-opacity="0"
         result="BackgroundImageFix"
         id="feFlood84945" />
      <feGaussianBlur
         in="BackgroundImage"
         stdDeviation="25"
         id="feGaussianBlur84947" />
      <feComposite
         in2="SourceAlpha"
         operator="in"
         result="effect1_backgroundBlur"
         id="feComposite84949" />
      <feBlend
         mode="normal"
         in="SourceGraphic"
         in2="effect1_backgroundBlur"
         result="shape"
         id="feBlend84951" />
    </filter>
    <linearGradient
       id="paint0_linear"
       x1="244.115"
       y1="37.3364"
       x2="-36.3142"
       y2="45.9675"
       gradientUnits="userSpaceOnUse">
      <stop
         stop-color="#1B1D25"
         id="stop84954" />
      <stop
         offset="1"
         stop-color="#1A1D25"
         stop-opacity="0.55"
         id="stop84956" />
    </linearGradient>
    <linearGradient
       id="paint1_linear"
       x1="250.53"
       y1="30.5892"
       x2="0.530036"
       y2="37.3364"
       gradientUnits="userSpaceOnUse">
      <stop
         stop-color="#2B2E38"
         id="stop84959" />
      <stop
         offset="1"
         stop-color="#2B2E38"
         stop-opacity="0"
         id="stop84961" />
    </linearGradient>
  </defs>
  <g
     style="fill:#ffffff"
     id="g85166"
     transform="matrix(0.72684656,0,0,0.72684656,43.158836,13.255314)">
    <path
       d="M 57.837,9.14802 C 57.671,8.94075 57.4294,8.80793 57.1655,8.77877 56.9015,8.74961 56.6368,8.8265 56.4295,8.99252 56.2222,9.15855 56.0894,9.40011 56.0603,9.66407 56.0311,9.92802 56.108,10.1928 56.274,10.4 58.6958,13.401 60.0114,17.1438 60,21 c 0.0019,2.6818 -0.6311,5.3259 -1.8473,7.716 -1.2162,2.3901 -2.9809,4.4584 -5.1499,6.0355 -2.1689,1.5772 -4.6805,2.6185 -7.3291,3.0386 -2.6486,0.4202 -5.3591,0.2074 -7.9097,-0.6211 -0.2404,-0.0791 -0.5021,-0.063 -0.731,0.045 L 28.916,41 31.624,34.5 c 0.0784,-0.1878 0.0977,-0.3951 0.0551,-0.5942 C 31.6366,33.7068 31.5343,33.5254 31.386,33.386 29.6814,31.8055 28.3227,29.8889 27.3957,27.7572 26.4687,25.6254 25.9935,23.3246 26,21 26.005,16.4929 27.7977,12.1718 30.9848,8.98476 34.1718,5.79773 38.4929,4.00505 43,4.00002 c 3.856,-0.01084 7.5985,1.30433 10.6,3.725 0.1023,0.08425 0.2203,0.14735 0.3471,0.18561 0.1269,0.03827 0.26,0.05094 0.3918,0.03729 C 54.4707,7.93427 54.5985,7.89457 54.7148,7.83111 54.8311,7.76766 54.9337,7.68173 55.0165,7.5783 55.0993,7.47488 55.1607,7.35603 55.1972,7.22866 55.2337,7.10129 55.2445,6.96793 55.229,6.83634 55.2136,6.70476 55.1721,6.57756 55.107,6.46214 55.0419,6.34672 54.9546,6.24539 54.85,6.16402 51.4948,3.45754 47.3108,1.98732 43,2.00002 37.9626,2.00558 33.1331,4.00914 29.5711,7.57113 26.0091,11.1331 24.0056,15.9626 24,21 c -0.008,2.481 0.4754,4.9391 1.4223,7.2323 0.9469,2.2932 2.3386,4.3762 4.0947,6.1287 l -2.681,6.433 -5.149,-8.918 c -0.3726,-0.6388 -0.968,-1.1174 -1.6719,-1.3441 -0.704,-0.2266 -1.4668,-0.1853 -2.1421,0.1161 -0.6753,0.3014 -1.2155,0.8416 -1.5169,1.5169 -0.3014,0.6754 -0.3427,1.4382 -0.1161,2.1421 l -0.785,1.346 c -1.8947,3.2449 -4.6019,5.9404 -7.85499,7.821 l -2.6,1.5 c -1.3782,0.7957 -2.38388,2.1062 -2.7958,3.6434 -0.41192,1.5371 -0.19635,3.1749 0.5993,4.5531 0.79565,1.3782 2.1062,2.3839 3.64334,2.7958 C 7.98399,56.3782 9.62181,56.1627 11,55.367 l 2.6,-1.5 c 0.441,-0.255 0.892,-0.49 1.349,-0.713 l 4.608,4.568 c 0.1454,0.1443 0.2555,0.3202 0.3219,0.5139 0.0664,0.1938 0.0872,0.4002 0.0609,0.6033 -0.0263,0.2031 -0.0991,0.3974 -0.2126,0.5679 -0.1136,0.1704 -0.2649,0.3124 -0.4422,0.4149 -0.2701,0.1558 -0.5864,0.2119 -0.8936,0.1583 C 18.0842,59.9268 17.8055,59.7671 17.604,59.529 L 14.7,56.1 c -0.1724,-0.2027 -0.4183,-0.3287 -0.6835,-0.3502 -0.2653,-0.0215 -0.5282,0.0633 -0.731,0.2357 -0.2027,0.1724 -0.3287,0.4183 -0.3502,0.6836 -0.0215,0.2652 0.0633,0.5282 0.2357,0.7309 l 2.906,3.426 c 0.293,0.3364 0.6506,0.6106 1.0515,0.8063 0.401,0.1956 0.8371,0.3087 1.2826,0.3326 0.4455,0.0239 0.8913,-0.0419 1.3109,-0.1935 0.4196,-0.1516 0.8044,-0.3859 1.1317,-0.6891 0.3274,-0.3031 0.5905,-0.6689 0.7738,-1.0756 0.1833,-0.4068 0.283,-0.8462 0.2933,-1.2922 0.0103,-0.446 -0.0691,-0.8895 -0.2335,-1.3043 C 21.523,56.9955 21.277,56.6179 20.964,56.3 l -4.023,-3.988 c 2.3566,-0.8702 4.8469,-1.323 7.359,-1.338 l 1.558,-0.007 c 0.4964,0.5472 1.1773,0.892 1.9122,0.9683 0.7349,0.0763 1.4721,-0.1213 2.0703,-0.5549 0.5982,-0.4336 1.0154,-1.0727 1.1716,-1.7948 0.1562,-0.7221 0.0405,-1.4765 -0.3251,-2.1186 l -2.311,-4 9.152,-4.271 c 3.8794,1.1722 8.0321,1.0724 11.8507,-0.2848 3.8185,-1.3573 7.1027,-3.9007 9.3721,-7.2583 2.2693,-3.3576 3.4048,-7.3533 3.2404,-11.4026 C 61.8268,16.2011 60.3711,12.3106 57.837,9.14802 Z M 10,53.634 C 9.54476,53.9068 9.03977,54.0863 8.51447,54.1619 7.98918,54.2376 7.45407,54.208 6.94033,54.0748 6.4266,53.9416 5.9445,53.7075 5.52212,53.3862 5.09975,53.0648 4.74555,52.6627 4.48015,52.2031 4.21476,51.7435 4.04348,51.2356 3.97629,50.7092 3.9091,50.1827 3.94735,49.6482 4.0888,49.1367 4.23026,48.6251 4.47209,48.1469 4.80021,47.7298 5.12834,47.3126 5.53619,46.965 6.00001,46.707 l 1.731,-1 3.99999,6.928 z m 19.055,-4.411 c -0.034,0.127 -0.0927,0.246 -0.1727,0.3503 -0.08,0.1043 -0.1798,0.1917 -0.2937,0.2574 -0.1139,0.0657 -0.2396,0.1082 -0.3699,0.1253 -0.1303,0.017 -0.2628,0.0082 -0.3897,-0.026 -0.1269,-0.0335 -0.2459,-0.0919 -0.3499,-0.1719 -0.1041,-0.08 -0.1911,-0.18 -0.2561,-0.2941 L 22.752,41.72 c -0.1335,-0.2278 -0.3518,-0.3935 -0.6071,-0.461 -0.2553,-0.0675 -0.5269,-0.0313 -0.7556,0.1007 -0.2287,0.1321 -0.3958,0.3492 -0.465,0.6041 -0.0692,0.2548 -0.0348,0.5267 0.0957,0.7562 l 3.61,6.252 h -0.34 c -3.7658,0.022 -7.4718,0.944 -10.809,2.689 L 9.44801,44.678 C 12.6282,42.6601 15.2802,39.9114 17.183,36.661 l 0.17,-0.292 1.667,2.887 c 0.0652,0.1147 0.1524,0.2153 0.2566,0.2961 0.1043,0.0808 0.2234,0.1402 0.3507,0.1747 0.1273,0.0346 0.2601,0.0436 0.3909,0.0266 0.1308,-0.017 0.2569,-0.0597 0.3711,-0.1256 0.1143,-0.066 0.2143,-0.1538 0.2944,-0.2586 0.0801,-0.1048 0.1387,-0.2243 0.1724,-0.3518 0.0337,-0.1275 0.0419,-0.2604 0.024,-0.3911 -0.0179,-0.1307 -0.0614,-0.2565 -0.1281,-0.3703 l -2.528,-4.381 c -0.0704,-0.1138 -0.1173,-0.2406 -0.1378,-0.3729 -0.0205,-0.1323 -0.0142,-0.2673 0.0184,-0.3972 0.0327,-0.1298 0.0911,-0.2517 0.1717,-0.3585 0.0807,-0.1069 0.182,-0.1964 0.2979,-0.2634 0.1159,-0.0669 0.2441,-0.11 0.3769,-0.1265 0.1329,-0.0165 0.2677,-0.0061 0.3964,0.0304 0.1288,0.0366 0.2489,0.0986 0.3533,0.1825 0.1043,0.0838 0.1908,0.1877 0.2542,0.3056 l 9,15.589 c 0.0659,0.1137 0.1087,0.2392 0.126,0.3695 0.0174,0.1302 0.0089,0.2626 -0.025,0.3895 z"
       fill="#000000"
       id="path85130"
       style="fill:#ffffff" />
    <path
       d="m 43,36 c 0.2652,0 0.5196,-0.1054 0.7071,-0.2929 C 43.8946,35.5196 44,35.2652 44,35 v -1.051 c 3.0888,-0.2411 5.99,-1.5774 8.1808,-3.7682 C 54.3716,27.99 55.7079,25.0888 55.949,22 H 57 c 0.2652,0 0.5196,-0.1054 0.7071,-0.2929 C 57.8946,21.5196 58,21.2652 58,21 58,20.7348 57.8946,20.4804 57.7071,20.2929 57.5196,20.1054 57.2652,20 57,20 H 55.949 C 55.7079,16.9112 54.3716,14.01 52.1808,11.8192 49.99,9.62841 47.0888,8.29209 44,8.051 V 7 C 44,6.73478 43.8946,6.48043 43.7071,6.29289 43.5196,6.10536 43.2652,6 43,6 42.7348,6 42.4804,6.10536 42.2929,6.29289 42.1054,6.48043 42,6.73478 42,7 V 8.051 C 38.9112,8.29209 36.01,9.62841 33.8192,11.8192 31.6284,14.01 30.2921,16.9112 30.051,20 H 29 c -0.2652,0 -0.5196,0.1054 -0.7071,0.2929 C 28.1054,20.4804 28,20.7348 28,21 c 0,0.2652 0.1054,0.5196 0.2929,0.7071 C 28.4804,21.8946 28.7348,22 29,22 h 1.045 c 0.0958,1.2061 0.3583,2.393 0.78,3.527 0.0928,0.2486 0.2806,0.4502 0.5221,0.5604 0.2414,0.1102 0.5168,0.1199 0.7654,0.0271 0.2486,-0.0928 0.4502,-0.2806 0.5604,-0.5221 C 32.7831,25.351 32.7928,25.0756 32.7,24.827 32.3597,23.9173 32.1405,22.9668 32.048,22 H 33 c 0.2652,0 0.5196,-0.1054 0.7071,-0.2929 C 33.8946,21.5196 34,21.2652 34,21 34,20.7348 33.8946,20.4804 33.7071,20.2929 33.5196,20.1054 33.2652,20 33,20 h -0.949 c 0.2367,-2.5587 1.3609,-4.954 3.1779,-6.7711 C 37.046,11.4119 39.4413,10.2877 42,10.051 V 11 c 0,0.2652 0.1054,0.5196 0.2929,0.7071 C 42.4804,11.8946 42.7348,12 43,12 43.2652,12 43.5196,11.8946 43.7071,11.7071 43.8946,11.5196 44,11.2652 44,11 v -0.949 c 2.5587,0.2367 4.954,1.3609 6.7711,3.1779 1.817,1.8171 2.9412,4.2124 3.1779,6.7711 H 53 c -0.2652,0 -0.5196,0.1054 -0.7071,0.2929 C 52.1054,20.4804 52,20.7348 52,21 c 0,0.2652 0.1054,0.5196 0.2929,0.7071 C 52.4804,21.8946 52.7348,22 53,22 h 0.949 c -0.2367,2.5587 -1.3609,4.954 -3.1779,6.7711 C 48.954,30.5881 46.5587,31.7123 44,31.949 V 31 C 44,30.7348 43.8946,30.4804 43.7071,30.2929 43.5196,30.1054 43.2652,30 43,30 42.7348,30 42.4804,30.1054 42.2929,30.2929 42.1054,30.4804 42,30.7348 42,31 v 0.945 C 40.5556,31.8159 39.1511,31.4017 37.8679,30.7263 36.5846,30.0508 35.4481,29.1276 34.524,28.01 c -0.1692,-0.2043 -0.4127,-0.3331 -0.6768,-0.358 -0.2642,-0.0248 -0.5273,0.0563 -0.7317,0.2255 -0.2043,0.1692 -0.3331,0.4127 -0.358,0.6768 -0.0248,0.2642 0.0563,0.5273 0.2255,0.7317 1.1122,1.3434 2.484,2.4484 4.0334,3.249 1.5494,0.8005 3.2444,1.2801 4.9836,1.41 V 35 c 0,0.2652 0.1054,0.5196 0.2929,0.7071 C 42.4804,35.8946 42.7348,36 43,36 Z"
       fill="#000000"
       id="path85132"
       style="fill:#ffffff" />
    <path
       d="m 38,23.5 v 2.74 c 0,0.161 0.039,0.3197 0.1135,0.4625 0.0745,0.1427 0.1824,0.2654 0.3145,0.3575 1.3404,0.9373 2.9364,1.44 4.572,1.44 1.6356,0 3.2316,-0.5027 4.572,-1.44 0.1321,-0.0921 0.24,-0.2148 0.3145,-0.3575 C 47.961,26.5597 48,26.401 48,26.24 V 23.5 C 47.9979,22.8077 47.8157,22.1278 47.4711,21.5272 47.1266,20.9267 46.6317,20.4262 46.035,20.075 46.6538,19.3594 46.9961,18.446 47,17.5 47,16.4391 46.5786,15.4217 45.8284,14.6716 45.0783,13.9214 44.0609,13.5 43,13.5 c -1.0609,0 -2.0783,0.4214 -2.8284,1.1716 C 39.4214,15.4217 39,16.4391 39,17.5 c 0.0039,0.946 0.3462,1.8594 0.965,2.575 -0.5967,0.3512 -1.0916,0.8517 -1.4361,1.4522 C 38.1843,22.1278 38.0021,22.8077 38,23.5 Z m 8,2.193 c -0.9143,0.52 -1.9481,0.7935 -3,0.7935 -1.0519,0 -2.0857,-0.2735 -3,-0.7935 V 23.5 c 0,-0.5304 0.2107,-1.0391 0.5858,-1.4142 C 40.9609,21.7107 41.4696,21.5 42,21.5 h 2 c 0.5304,0 1.0391,0.2107 1.4142,0.5858 C 45.7893,22.4609 46,22.9696 46,23.5 Z M 43,15.5 c 0.3956,0 0.7822,0.1173 1.1111,0.3371 0.3289,0.2197 0.5853,0.5321 0.7367,0.8975 0.1513,0.3655 0.1909,0.7676 0.1138,1.1556 -0.0772,0.3879 -0.2677,0.7443 -0.5474,1.024 -0.2797,0.2797 -0.6361,0.4702 -1.024,0.5474 -0.388,0.0771 -0.7901,0.0375 -1.1556,-0.1138 C 41.8692,19.1964 41.5568,18.94 41.3371,18.6111 41.1173,18.2822 41,17.8956 41,17.5 41,16.9696 41.2107,16.4609 41.5858,16.0858 41.9609,15.7107 42.4696,15.5 43,15.5 Z"
       fill="#000000"
       id="path85134"
       style="fill:#ffffff" />
    <path
       d="m 11.4,27.8 c 0.1051,0.0788 0.2246,0.1361 0.3518,0.1687 0.1272,0.0326 0.2596,0.0398 0.3896,0.0213 0.13,-0.0186 0.2551,-0.0626 0.3681,-0.1295 0.113,-0.0669 0.2117,-0.1554 0.2905,-0.2605 0.0788,-0.1051 0.1361,-0.2246 0.1687,-0.3518 0.0326,-0.1272 0.0398,-0.2596 0.0213,-0.3896 -0.0186,-0.13 -0.0626,-0.2551 -0.1295,-0.3681 C 12.7936,26.3775 12.7051,26.2788 12.6,26.2 l -4,-3 C 8.38783,23.0409 8.12113,22.9725 7.85858,23.0101 7.59603,23.0476 7.35913,23.1878 7.2,23.4 7.04087,23.6122 6.97255,23.8789 7.01005,24.1414 7.04756,24.404 7.18783,24.6409 7.4,24.8 Z"
       fill="#000000"
       id="path85136"
       style="fill:#ffffff" />
    <path
       d="m 14.052,25.316 c 0.0415,0.1248 0.1072,0.2401 0.1932,0.3395 0.0861,0.0994 0.1909,0.1808 0.3085,0.2397 0.1176,0.0589 0.2456,0.094 0.3767,0.1034 0.1311,0.0094 0.2628,-0.0071 0.3876,-0.0486 0.1248,-0.0415 0.2401,-0.1071 0.3395,-0.1932 0.0994,-0.0861 0.1808,-0.1909 0.2397,-0.3085 0.0589,-0.1175 0.094,-0.2455 0.1034,-0.3767 C 16.01,24.9405 15.9935,24.8088 15.952,24.684 l -2,-6 c -0.0415,-0.1247 -0.1072,-0.2401 -0.1932,-0.3395 -0.0861,-0.0994 -0.1909,-0.1808 -0.3085,-0.2397 -0.1176,-0.0589 -0.2456,-0.094 -0.3767,-0.1034 -0.1311,-0.0094 -0.2628,0.0071 -0.3876,0.0486 -0.1248,0.0415 -0.2401,0.1072 -0.3395,0.1933 -0.0994,0.086 -0.1808,0.1909 -0.2397,0.3084 -0.0589,0.1176 -0.094,0.2456 -0.1034,0.3767 -0.0094,0.1312 0.0071,0.2629 0.0486,0.3876 z"
       fill="#000000"
       id="path85138"
       style="fill:#ffffff" />
    <path
       d="m 18.8,25.98 c 0.0658,0.0138 0.1328,0.0205 0.2,0.02 0.2304,-2e-4 0.4536,-0.0799 0.632,-0.2256 0.1783,-0.1458 0.3009,-0.3487 0.347,-0.5744 l 1,-5 c 0.0308,-0.1306 0.0351,-0.2661 0.0124,-0.3984 -0.0226,-0.1323 -0.0717,-0.2587 -0.1442,-0.3716 -0.0725,-0.113 -0.167,-0.2102 -0.2779,-0.2858 -0.1109,-0.0756 -0.2358,-0.1282 -0.3674,-0.1545 -0.1316,-0.0263 -0.2672,-0.0259 -0.3986,0.0013 -0.1315,0.0272 -0.2561,0.0805 -0.3665,0.1569 -0.1104,0.0764 -0.2042,0.1742 -0.276,0.2876 -0.0718,0.1134 -0.12,0.2401 -0.1418,0.3725 l -1,5 c -0.0507,0.2589 0.0029,0.5273 0.1492,0.7468 0.1463,0.2195 0.3734,0.3724 0.6318,0.4252 z"
       fill="#000000"
       id="path85140"
       style="fill:#ffffff" />
    <path
       d="m 30.836,53.014 c -0.1295,0.0216 -0.2536,0.0685 -0.365,0.138 -0.1114,0.0695 -0.2081,0.1603 -0.2844,0.2672 -0.0763,0.1069 -0.1309,0.2278 -0.1605,0.3557 -0.0296,0.128 -0.0337,0.2605 -0.0121,0.3901 l 1,6 c 0.039,0.2333 0.1595,0.4452 0.34,0.5981 0.1806,0.1529 0.4094,0.2368 0.646,0.2369 0.0553,2e-4 0.1105,-0.0044 0.165,-0.014 0.1296,-0.0216 0.2536,-0.0685 0.365,-0.138 0.1115,-0.0696 0.2081,-0.1604 0.2844,-0.2673 0.0764,-0.1068 0.1309,-0.2277 0.1605,-0.3557 0.0296,-0.1279 0.0337,-0.2605 0.0121,-0.39 l -1,-6 c -0.0438,-0.2615 -0.1897,-0.4949 -0.4055,-0.6488 -0.2159,-0.154 -0.484,-0.2159 -0.7455,-0.1722 z"
       fill="#000000"
       id="path85142"
       style="fill:#ffffff" />
    <path
       d="m 35.641,52.232 c -0.2037,-0.17 -0.4666,-0.2521 -0.7308,-0.2283 -0.2643,0.0238 -0.5082,0.1516 -0.6782,0.3553 -0.17,0.2037 -0.2521,0.4666 -0.2283,0.7308 0.0238,0.2642 0.1516,0.5082 0.3553,0.6782 l 6,5 c 0.1008,0.0842 0.2173,0.1477 0.3427,0.1868 0.1254,0.0392 0.2573,0.0533 0.3881,0.0415 0.1308,-0.0118 0.2581,-0.0492 0.3744,-0.1102 0.1164,-0.061 0.2196,-0.1443 0.3038,-0.2451 0.0842,-0.1009 0.1477,-0.2173 0.1868,-0.3427 0.0392,-0.1254 0.0533,-0.2573 0.0415,-0.3881 -0.0118,-0.1308 -0.0492,-0.2581 -0.1102,-0.3745 -0.061,-0.1163 -0.1443,-0.2195 -0.2451,-0.3037 z"
       fill="#000000"
       id="path85144"
       style="fill:#ffffff" />
    <path
       d="m 44.274,50.039 -7,-2 c -0.1278,-0.0417 -0.2628,-0.0571 -0.3967,-0.0455 -0.134,0.0117 -0.2643,0.0502 -0.383,0.1134 -0.1187,0.0632 -0.2235,0.1496 -0.308,0.2542 -0.0845,0.1046 -0.1471,0.2251 -0.184,0.3545 -0.0369,0.1293 -0.0473,0.2647 -0.0306,0.3981 0.0167,0.1335 0.0601,0.2622 0.1277,0.3785 0.0675,0.1162 0.1578,0.2177 0.2655,0.2982 0.1077,0.0806 0.2305,0.1386 0.3611,0.1706 l 7,2 c 0.089,0.0262 0.1813,0.0393 0.274,0.039 0.2407,-8e-4 0.4731,-0.0885 0.6544,-0.2469 0.1813,-0.1583 0.2993,-0.3768 0.3325,-0.6152 0.0332,-0.2384 -0.0207,-0.4808 -0.1518,-0.6827 -0.1312,-0.2018 -0.3308,-0.3496 -0.5621,-0.4162 z"
       fill="#000000"
       id="path85146"
       style="fill:#ffffff" />
    <path
       d="m 38,46 c 0.0553,3e-4 0.1105,-0.0044 0.165,-0.014 l 6,-1 c 0.1326,-0.018 0.2603,-0.0624 0.3755,-0.1306 0.1151,-0.0683 0.2154,-0.1589 0.2949,-0.2666 0.0795,-0.1078 0.1365,-0.2303 0.1677,-0.3605 0.0313,-0.1302 0.036,-0.2653 0.0141,-0.3973 C 44.9952,43.6989 44.947,43.5726 44.8753,43.4596 44.8036,43.3465 44.71,43.249 44.5999,43.1728 44.4898,43.0967 44.3656,43.0433 44.2346,43.0161 44.1035,42.9888 43.9683,42.9881 43.837,43.014 l -6,1 c -0.2469,0.0417 -0.4692,0.1746 -0.6229,0.3723 -0.1536,0.1977 -0.2275,0.4459 -0.2071,0.6955 0.0205,0.2496 0.1339,0.4824 0.3178,0.6524 0.1838,0.17 0.4248,0.2649 0.6752,0.2658 z"
       fill="#000000"
       id="path85148"
       style="fill:#ffffff" />
  </g>
  <text
     xml:space="preserve"
     style="font-style:normal;font-weight:normal;font-size:25.2141px;line-height:1.25;font-family:sans-serif;fill:#000000;fill-opacity:1;stroke:none;stroke-width:0.630352"
     x="96.10128"
     y="35.642509"
     id="text86992"><tspan
       sodipodi:role="line"
       id="tspan86990"
       x="96.10128"
       y="35.642509"
       style="font-style:normal;font-variant:normal;font-weight:800;font-stretch:normal;font-family:Mont;-inkscape-font-specification:'Mont Ultra-Bold';fill:#87cdde;stroke-width:0.630352">1,420,609</tspan></text>
  <text
     xml:space="preserve"
     style="font-style:normal;font-weight:normal;font-size:14.1078px;line-height:1.25;font-family:sans-serif;fill:#000000;fill-opacity:1;stroke:none;stroke-width:0.52904"
     x="95.297195"
     y="54.825508"
     id="text122786"><tspan
       sodipodi:role="line"
       id="tspan122784"
       x="95.297195"
       y="54.825508"
       style="font-style:normal;font-variant:normal;font-weight:600;font-stretch:normal;font-size:14.1078px;font-family:Mont;-inkscape-font-specification:'Mont Semi-Bold';fill:#ffffff;stroke-width:0.52904">Potential Reach</tspan></text>
</svg>
